<svg width="30" height="43" viewBox="0 0 30 43" fill="none" xmlns="http://www.w3.org/2000/svg">
<path d="M0.491211 31.781V11.5329C0.491211 5.45842 3.90539 0.541016 8.12291 0.541016H22.0809C26.2984 0.541016 29.7126 5.45842 29.7126 11.5329V31.6364C29.7126 37.7108 26.2984 42.6282 22.0809 42.6282H17.3613L14.8509 41.7605L12.7421 42.6282H8.02249C3.90539 42.7729 0.491211 37.8555 0.491211 31.781Z" fill="white"/>
<path d="M20.8759 28.4545L21.4784 22.3801H17.3613V18.4751C17.3613 16.7395 17.9638 15.1486 19.7713 15.1486H21.5788V9.94195C21.5788 9.94195 19.8717 9.50806 18.265 9.50806C14.9513 9.50806 12.7421 12.4006 12.7421 17.7519V22.3801H9.12708V28.4545H12.8425V42.7729H17.4617V28.4545H20.8759Z" fill="#1E1E1E"/>
</svg>
