<svg width="30" height="43" viewBox="0 0 30 43" fill="none" xmlns="http://www.w3.org/2000/svg">
<path d="M0.469727 31.781V11.5329C0.469727 5.45842 3.88391 0.541016 8.10143 0.541016H22.0594C26.2769 0.541016 29.6911 5.45842 29.6911 11.5329V31.6364C29.6911 37.7108 26.2769 42.6282 22.0594 42.6282H8.10143C3.98433 42.7729 0.469727 37.8555 0.469727 31.781Z" fill="white"/>
<path d="M19.7498 13.7017C19.1473 13.7017 18.7456 14.2802 18.7456 15.148C18.7456 16.0157 19.2477 16.5943 19.7498 16.5943C20.3523 16.5943 20.754 16.0157 20.754 15.148C20.754 14.4248 20.3523 13.7017 19.7498 13.7017Z" fill="#1E1E1E"/>
<path d="M15.231 15.583C12.9214 15.583 11.0135 18.331 11.0135 21.6575C11.0135 24.9839 12.9214 27.7319 15.231 27.7319C17.5406 27.7319 19.4486 24.9839 19.4486 21.6575C19.4486 18.331 17.641 15.583 15.231 15.583ZM15.231 25.5625C13.7248 25.5625 12.5198 23.8269 12.5198 21.6575C12.5198 19.488 13.7248 17.7525 15.231 17.7525C16.7373 17.7525 17.9423 19.488 17.9423 21.6575C17.9423 23.8269 16.7373 25.5625 15.231 25.5625Z" fill="#1E1E1E"/>
<path d="M18.6452 34.095H11.7165C8.90478 34.095 6.59518 30.7686 6.59518 26.7189V16.8841C6.59518 12.6899 8.90478 9.21875 11.7165 9.21875H18.5448C21.3565 9.21875 23.6661 12.5452 23.6661 16.5949V26.5743C23.7665 30.7686 21.4569 34.095 18.6452 34.095ZM11.7165 11.6775C9.70811 11.6775 8.20186 13.9915 8.20186 16.7395V26.5743C8.20186 29.4669 9.80853 31.6363 11.7165 31.6363H18.5448C20.5532 31.6363 22.0594 29.3223 22.0594 26.5743V16.7395C22.0594 13.8469 20.4527 11.6775 18.5448 11.6775H11.7165Z" fill="#1E1E1E"/>
</svg>
