<svg width="30" height="43" viewBox="0 0 30 43" fill="none" xmlns="http://www.w3.org/2000/svg">
<path d="M0.548676 31.781V11.5329C0.548676 5.45842 3.96286 0.541016 8.18038 0.541016H22.1384C26.3559 0.541016 29.7701 5.45842 29.7701 11.5329V31.6364C29.7701 37.7108 26.3559 42.6282 22.1384 42.6282H8.18038C3.96286 42.7729 0.548676 37.8555 0.548676 31.781Z" fill="white"/>
<path d="M23.0421 18.6197C23.0421 15.8717 21.4354 13.5576 19.5275 13.5576H10.49C8.58205 13.5576 6.97537 15.8717 6.97537 18.6197V24.6941C6.97537 27.4421 8.58205 29.7561 10.49 29.7561H19.5275C21.4354 29.7561 23.0421 27.4421 23.0421 24.6941V18.6197ZM17.72 22.0908L13.7033 24.9834C13.5025 25.128 13.0004 24.9834 13.0004 24.6941V18.7643C13.0004 18.475 13.5025 18.3304 13.7033 18.475L17.6196 21.5122C17.72 21.6569 17.9208 21.9461 17.72 22.0908Z" fill="#1E1E1E"/>
</svg>
